<svg width="19" height="19" xmlns="http://www.w3.org/2000/svg" xmlns:xlink="http://www.w3.org/1999/xlink" xml:space="preserve" overflow="hidden"><defs><clipPath id="clip0"><rect x="0" y="0" width="19" height="19"/></clipPath></defs><g clip-path="url(#clip0)"><path d="M9.5 1.97917C5.34375 1.97917 1.97917 5.34375 1.97917 9.5 1.97917 13.6562 5.34375 17.0208 9.5 17.0208 13.6562 17.0208 17.0208 13.6562 17.0208 9.5 17.0208 5.34375 13.6562 1.97917 9.5 1.97917ZM4.75 6.13542C4.75 5.91771 4.92812 5.73958 5.14583 5.73958L7.52083 5.73958C7.73854 5.73958 7.91667 5.91771 7.91667 6.13542 7.91667 6.35313 7.73854 6.53125 7.52083 6.53125L5.14583 6.53125C4.92812 6.53125 4.75 6.35313 4.75 6.13542ZM5.14583 8.3125C5.14583 7.65938 5.68021 7.125 6.33333 7.125 6.98646 7.125 7.52083 7.65938 7.52083 8.3125 7.52083 8.96562 6.98646 9.5 6.33333 9.5 5.68021 9.5 5.14583 8.96562 5.14583 8.3125ZM11.6771 13.2604 7.32292 13.2604C7.10521 13.2604 6.92708 13.0823 6.92708 12.8646 6.92708 12.6469 7.10521 12.4688 7.32292 12.4688L11.6771 12.4688C11.8948 12.4688 12.0729 12.6469 12.0729 12.8646 12.0729 13.0823 11.8948 13.2604 11.6771 13.2604ZM12.6667 9.5C12.0135 9.5 11.4792 8.96562 11.4792 8.3125 11.4792 7.65938 12.0135 7.125 12.6667 7.125 13.3198 7.125 13.8542 7.65938 13.8542 8.3125 13.8542 8.96562 13.3198 9.5 12.6667 9.5ZM13.8542 6.53125 11.4792 6.53125C11.2615 6.53125 11.0833 6.35313 11.0833 6.13542 11.0833 5.91771 11.2615 5.73958 11.4792 5.73958L13.8542 5.73958C14.0719 5.73958 14.25 5.91771 14.25 6.13542 14.25 6.35313 14.0719 6.53125 13.8542 6.53125Z"/></g></svg>