<svg width="19" height="19" xmlns="http://www.w3.org/2000/svg" xmlns:xlink="http://www.w3.org/1999/xlink" xml:space="preserve" overflow="hidden"><defs><clipPath id="clip0"><rect x="0" y="0" width="19" height="19"/></clipPath></defs><g clip-path="url(#clip0)"><path d="M9.5 1.97917C5.34375 1.97917 1.97917 5.34375 1.97917 9.5 1.97917 13.6562 5.34375 17.0208 9.5 17.0208 13.6562 17.0208 17.0208 13.6562 17.0208 9.5 17.0208 5.34375 13.6562 1.97917 9.5 1.97917ZM4.94792 5.77917C4.92812 5.56146 5.08646 5.36354 5.30417 5.34375L7.28333 5.14583C7.50104 5.12604 7.69896 5.28438 7.71875 5.50208 7.73854 5.71979 7.58021 5.91771 7.3625 5.9375L5.38333 6.13542C5.36354 6.13542 5.36354 6.13542 5.34375 6.13542 5.14583 6.13542 4.96771 5.97708 4.94792 5.77917ZM6.33333 9.5C5.68021 9.5 5.14583 8.96562 5.14583 8.3125 5.14583 7.65938 5.68021 7.125 6.33333 7.125 6.98646 7.125 7.52083 7.65938 7.52083 8.3125 7.52083 8.96562 6.98646 9.5 6.33333 9.5ZM11.974 12.7063C11.9146 12.924 11.7167 13.0427 11.499 13.0031 9.38125 12.5083 7.97604 13.5771 7.95625 13.5969 7.87708 13.6562 7.79792 13.676 7.71875 13.676 7.6 13.676 7.48125 13.6167 7.40208 13.5177 7.26354 13.3396 7.30313 13.1021 7.48125 12.9635 7.56042 12.9042 9.22292 11.6375 11.6969 12.2312 11.8948 12.2708 12.0333 12.4885 11.974 12.7063ZM12.6667 9.5C12.0135 9.5 11.4792 8.96562 11.4792 8.3125 11.4792 7.65938 12.0135 7.125 12.6667 7.125 13.3198 7.125 13.8542 7.65938 13.8542 8.3125 13.8542 8.96562 13.3198 9.5 12.6667 9.5ZM13.6562 6.13542C13.6365 6.13542 13.6365 6.13542 13.6167 6.13542L11.6375 5.9375C11.4198 5.91771 11.2615 5.71979 11.2812 5.50208 11.301 5.28438 11.499 5.12604 11.7167 5.14583L13.6958 5.34375C13.9135 5.36354 14.0719 5.56146 14.0521 5.77917 14.0323 5.97708 13.8542 6.13542 13.6562 6.13542Z" fill="#FF0000"/></g></svg>