<svg width="19" height="19" xmlns="http://www.w3.org/2000/svg" xmlns:xlink="http://www.w3.org/1999/xlink" xml:space="preserve" overflow="hidden"><defs><clipPath id="clip0"><rect x="0" y="0" width="19" height="19"/></clipPath></defs><g clip-path="url(#clip0)"><path d="M9.5 1.97917C5.34375 1.97917 1.97917 5.34375 1.97917 9.5 1.97917 13.6562 5.34375 17.0208 9.5 17.0208 13.6562 17.0208 17.0208 13.6562 17.0208 9.5 17.0208 5.34375 13.6562 1.97917 9.5 1.97917ZM5.14583 8.3125C5.14583 7.65938 5.68021 7.125 6.33333 7.125 6.98646 7.125 7.52083 7.65938 7.52083 8.3125 7.52083 8.96562 6.98646 9.5 6.33333 9.5 5.68021 9.5 5.14583 8.96562 5.14583 8.3125ZM13.4188 12.7063C12.5083 13.8938 11.1031 14.6458 9.5 14.6458 7.89688 14.6458 6.49167 13.8938 5.58125 12.7063 5.54167 12.6469 5.50208 12.5677 5.50208 12.4688 5.50208 12.251 5.68021 12.0729 5.89792 12.0729 6.03646 12.0729 6.15521 12.1323 6.21458 12.2312 6.96667 13.2208 8.15417 13.8344 9.5 13.8344 10.8458 13.8344 12.0135 13.2208 12.7854 12.2312 12.8646 12.1323 12.9833 12.0729 13.1021 12.0729 13.3198 12.0729 13.4979 12.251 13.4979 12.4688 13.4979 12.5677 13.4583 12.6469 13.4188 12.7063ZM12.6667 9.5C12.0135 9.5 11.4792 8.96562 11.4792 8.3125 11.4792 7.65938 12.0135 7.125 12.6667 7.125 13.3198 7.125 13.8542 7.65938 13.8542 8.3125 13.8542 8.96562 13.3198 9.5 12.6667 9.5Z" fill="#0070C0"/></g></svg>